<svg width="107" height="70" viewBox="0 0 107 70" fill="none" xmlns="http://www.w3.org/2000/svg">
<path fill-rule="evenodd" clip-rule="evenodd" d="M38.1438 0.0819604C45.7731 -0.295894 53.4232 0.637873 60.2466 2.77686C67.07 4.91591 72.8008 8.17808 76.8035 12.2024C79.504 14.9177 81.3422 17.9095 82.2554 21.0181C87.8927 22.5503 92.9235 24.8434 96.9654 27.7408C101.958 31.3197 105.248 35.6816 106.469 40.3425C107.69 45.0031 106.796 49.7817 103.885 54.1483C100.975 58.5149 96.1625 62.2997 89.98 65.083C83.7974 67.8662 76.4862 69.54 68.8568 69.918C61.2275 70.296 53.5773 69.362 46.754 67.2231C39.9305 65.0841 34.1998 61.8219 30.1971 57.7975C27.4953 55.0811 25.6528 52.0892 24.7399 48.9793C19.1044 47.4471 14.0735 45.1558 10.0326 42.2591C5.04067 38.6805 1.75291 34.3181 0.531556 29.6575C-0.689577 24.9968 0.202468 20.2183 3.11253 15.8517C6.02286 11.4848 10.8378 7.70034 17.0205 4.91701C23.2031 2.13387 30.5145 0.459887 38.1438 0.0819604ZM41.4614 25.577L31.6783 44.4229H65.5366L75.3197 25.577H41.4614Z" fill="#F7EBDB"/>
</svg>
