<svg width="520" height="80" viewBox="0 0 520 80" fill="none" xmlns="http://www.w3.org/2000/svg">
<path d="M58.239 26.1199V50.0946H55.8387C54.8281 41.1357 52.4277 40.1262 47.2481 40.1262H25.898V67.0032C25.898 72.8076 28.0457 73.9432 32.72 73.9432H52.1751C61.0183 73.9432 63.6713 70.5363 66.8296 59.6845H69.1036L67.0823 78.4858H0V76.0883H3.53729C13.6438 76.0883 15.4125 73.3123 15.4125 65.7413V12.4921C15.4125 5.42587 13.7702 2.39748 5.30594 2.39748H2.52664V0H63.166L64.1766 17.5394H61.9027C60.2604 6.81388 57.102 4.54259 52.5541 4.54259H25.898V35.5836H48.5115C53.0594 35.5836 55.2071 33.4385 55.8387 26.1199H58.239Z" fill="#F7EBDB"/>
<path d="M92.3171 40.1262V67.5079C92.3171 74.448 93.9594 76.0883 100.781 76.0883V78.4858H75.3886V76.0883C80.9472 76.0883 83.8528 73.0599 83.8528 68.1388V41.6404C83.8528 36.9716 83.3475 36.0883 80.0629 35.4574L75.7676 34.5741V32.5552L90.2958 27.2555H92.3171V37.0978C100.781 31.7981 107.856 27.1293 114.046 27.1293C122.637 27.1293 127.564 33.4385 127.564 46.0568C127.564 62.8391 126.679 66.1199 126.553 71.041C126.427 74.448 128.448 76.0883 133.628 76.0883H136.407V78.4858H109.246V76.0883C112.909 75.9622 115.057 75.0789 116.447 73.6909C118.847 71.2934 119.099 62.082 119.099 45.2997C119.099 35.2051 114.173 32.0505 109.119 32.0505C105.077 32.0505 98.8863 35.5836 92.3171 40.1262Z" fill="#F7EBDB"/>
<path d="M153.397 28.5173H171.462L169.441 34.0694H153.397V63.47C153.397 71.4196 159.081 74.0694 161.734 74.0694C164.514 74.0694 167.04 71.9243 169.441 67.7603L171.462 69.653C168.43 76.2145 163.503 80 157.692 80C150.238 80 144.932 73.817 144.932 65.3628V34.0694H139.121V32.0505C144.048 29.653 148.343 23.8486 151.249 16.0252H153.397V28.5173Z" fill="#F7EBDB"/>
<path d="M190.032 44.795V69.2745C190.032 74.448 191.927 76.0883 198.243 76.0883H203.044V78.4858H173.103V76.0883C179.546 75.9622 181.568 73.3123 181.568 66.6246V37.4763L173.103 34.448V32.3028L187.505 27.2555H190.032V40.6309H190.285C196.601 30.2839 198.117 27.8864 202.286 27.8864C203.802 27.8864 204.181 28.0126 206.581 29.0221C207.845 29.5268 210.119 30.0316 213.151 30.9148L210.119 38.4858C208.224 38.2334 205.823 37.6025 203.423 36.4669C202.033 35.836 200.517 35.205 199.001 35.205C196.727 35.205 195.338 36.7192 194.074 38.4858C192.432 40.7571 191.043 42.9022 190.032 44.795Z" fill="#F7EBDB"/>
<path d="M258.185 46.4353H221.296C221.043 48.3281 220.791 50.0946 220.791 51.735C220.791 64.858 230.013 73.6909 239.993 73.6909C246.31 73.6909 251.237 71.1672 256.037 65.489L257.427 67.0032C252.121 73.6908 244.162 80 234.94 80C222.559 80 212.958 68.7697 212.958 54.1325C212.958 40.7571 221.928 27.1293 237.34 27.1293C254.395 27.1293 254.016 39.3691 258.185 43.5331V46.4353ZM221.675 43.1546H247.573C246.184 34.9527 241.13 29.5268 235.066 29.5268C230.897 29.5268 224.581 31.4196 221.675 43.1546Z" fill="#F7EBDB"/>
<path d="M279.848 39.4953V68.265C279.848 74.8265 281.617 76.0883 288.691 76.0883V78.4858H262.414V76.0883C269.741 76.0883 271.384 72.8076 271.384 66.3722V41.6404C271.384 36.7192 270.626 35.5836 267.72 35.205L262.793 34.5741V32.429L277.953 27.1293H279.848V37.224C288.944 30.7886 297.282 27.1293 302.335 27.1293C308.525 27.1293 313.073 31.041 314.337 37.224C322.801 31.9243 330.507 27.1293 336.697 27.1293C345.793 27.1293 349.33 34.0694 349.33 46.183C349.33 54.2587 349.33 62.7129 348.951 70.4101C348.951 73.0599 350.467 76.0883 355.647 76.0883H359.69V78.4858H331.265V76.0883H332.402C336.066 76.0883 337.708 75.4574 338.845 74.3218C340.74 72.429 340.866 65.1104 340.866 56.4038V46.5615C340.866 36.8454 337.582 32.1767 331.391 32.1767C327.475 32.1767 322.422 34.0694 314.589 39.2429V68.265C314.589 74.5741 316.105 76.0883 322.422 76.0883V78.4858H296.524V76.0883C303.598 76.0883 306.125 73.5647 306.125 66.3722V43.0284C306.125 35.0789 301.198 32.1767 296.776 32.1767C293.239 32.1767 288.439 33.817 279.848 39.4953Z" fill="#F7EBDB"/>
<path d="M362.973 53.8801C362.973 36.4669 377.123 27.1293 390.261 27.1293C405.674 27.1293 417.422 38.612 417.422 53.6278C417.422 68.5174 405.674 80 390.64 80C374.975 80 362.973 68.6435 362.973 53.8801ZM372.448 49.5899C372.448 64.858 381.165 76.9716 392.03 76.9716C399.483 76.9716 407.948 69.4006 407.948 56.7823C407.948 42.3975 399.104 30.1577 388.493 30.1577C380.155 30.1577 372.448 38.7382 372.448 49.5899Z" fill="#F7EBDB"/>
<path d="M440.855 40.1262V67.5079C440.855 74.448 442.497 76.0883 449.319 76.0883V78.4858H423.927V76.0883C429.485 76.0883 432.391 73.0599 432.391 68.1388V41.6404C432.391 36.9716 431.885 36.0883 428.601 35.4574L424.306 34.5741V32.5552L438.834 27.2555H440.855V37.0978C449.319 31.7981 456.394 27.1293 462.584 27.1293C471.175 27.1293 476.102 33.4385 476.102 46.0568C476.102 62.8391 475.217 66.1199 475.091 71.041C474.965 74.448 476.986 76.0883 482.166 76.0883H484.945V78.4858H457.783V76.0883C461.447 75.9622 463.595 75.0789 464.984 73.6909C467.385 71.2934 467.637 62.082 467.637 45.2997C467.637 35.2051 462.71 32.0505 457.657 32.0505C453.615 32.0505 447.424 35.5836 440.855 40.1262Z" fill="#F7EBDB"/>
<path d="M501.935 28.5173H520L517.979 34.0694H501.935V63.47C501.935 71.4196 507.62 74.0694 510.272 74.0694C513.052 74.0694 515.578 71.9243 517.979 67.7603L520 69.653C516.968 76.2145 512.041 80 506.23 80C498.776 80 493.47 73.817 493.47 65.3628V34.0694H487.659V32.0505C492.586 29.653 496.881 23.8486 499.787 16.0252H501.935V28.5173Z" fill="#F7EBDB"/>
</svg>
