<svg width="645" height="80" viewBox="0 0 645 80" fill="none" xmlns="http://www.w3.org/2000/svg">
<path d="M183.562 26.1199V50.0946H181.164C180.154 41.1357 177.755 40.1262 172.579 40.1262H151.244V67.0032C151.244 72.8076 153.39 73.9432 158.061 73.9432H177.502C186.339 73.9432 188.991 70.5363 192.147 59.6845H194.419L192.399 78.4858H125.364V76.0883H128.899C138.998 76.0883 140.766 73.3123 140.766 65.7413V12.4921C140.766 5.42587 139.124 2.39748 130.666 2.39748H127.889V0H188.486L189.496 17.5394H187.223C185.582 6.81388 182.426 4.54259 177.881 4.54259H151.244V35.5836H173.841C178.386 35.5836 180.532 33.4385 181.164 26.1199H183.562Z" fill="white"/>
<path d="M217.616 40.1262V67.5079C217.616 74.448 219.257 76.0883 226.075 76.0883V78.4858H200.7V76.0883C206.254 76.0883 209.158 73.0599 209.158 68.1388V41.6404C209.158 36.9716 208.653 36.0883 205.371 35.4574L201.078 34.5741V32.5552L215.596 27.2555H217.616V37.0978C226.075 31.7981 233.144 27.1293 239.33 27.1293C247.915 27.1293 252.838 33.4385 252.838 46.0568C252.838 62.8391 251.955 66.1199 251.828 71.041C251.702 74.448 253.722 76.0883 258.898 76.0883H261.675V78.4858H234.533V76.0883C238.194 75.9622 240.34 75.0789 241.729 73.6909C244.127 71.2934 244.38 62.082 244.38 45.2997C244.38 35.2051 239.456 32.0505 234.407 32.0505C230.367 32.0505 224.181 35.5836 217.616 40.1262Z" fill="white"/>
<path d="M278.653 28.5173H296.706L294.686 34.0694H278.653V63.47C278.653 71.4196 284.334 74.0694 286.985 74.0694C289.762 74.0694 292.287 71.9243 294.686 67.7603L296.706 69.653C293.676 76.2145 288.753 80 282.945 80C275.497 80 270.195 73.817 270.195 65.3628V34.0694H264.388V32.0505C269.311 29.653 273.603 23.8486 276.507 16.0252H278.653V28.5173Z" fill="white"/>
<path d="M315.263 44.795V69.2745C315.263 74.448 317.156 76.0883 323.469 76.0883H328.266V78.4858H298.346V76.0883C304.784 75.9622 306.804 73.3123 306.804 66.6246V37.4763L298.346 34.448V32.3028L312.738 27.2555H315.263V40.6309H315.515C321.827 30.2839 323.342 27.8864 327.508 27.8864C329.023 27.8864 329.402 28.0126 331.801 29.0221C333.063 29.5268 335.335 30.0316 338.365 30.9148L335.335 38.4858C333.442 38.2334 331.043 37.6025 328.645 36.4669C327.256 35.836 325.741 35.205 324.226 35.205C321.954 35.205 320.565 36.7192 319.302 38.4858C317.661 40.7571 316.273 42.9022 315.263 44.795Z" fill="white"/>
<path d="M383.368 46.4353H346.505C346.253 48.3281 346 50.0946 346 51.735C346 64.858 355.216 73.6909 365.189 73.6909C371.501 73.6909 376.425 71.1672 381.222 65.489L382.611 67.0032C377.309 73.6909 369.355 80 360.139 80C347.768 80 338.173 68.7697 338.173 54.1325C338.173 40.7571 347.136 27.1293 362.538 27.1293C379.581 27.1293 379.202 39.3691 383.368 43.5331V46.4353ZM346.884 43.1546H372.764C371.375 34.9527 366.325 29.5268 360.266 29.5268C356.1 29.5268 349.787 31.4196 346.884 43.1546Z" fill="white"/>
<path d="M405.016 39.4953V68.265C405.016 74.8265 406.783 76.0883 413.853 76.0883V78.4858H387.594V76.0883C394.916 76.0883 396.558 72.8076 396.558 66.3722V41.6404C396.558 36.7192 395.8 35.5836 392.897 35.205L387.973 34.5741V32.429L403.122 27.1293H405.016V37.224C414.105 30.7886 422.438 27.1293 427.487 27.1293C433.673 27.1293 438.218 31.041 439.48 37.224C447.939 31.9243 455.64 27.1293 461.826 27.1293C470.915 27.1293 474.45 34.0694 474.45 46.183C474.45 54.2587 474.45 62.7129 474.071 70.4101C474.071 73.0599 475.586 76.0883 480.762 76.0883H484.802V78.4858H456.397V76.0883H457.533C461.194 76.0883 462.835 75.4574 463.972 74.3218C465.865 72.429 465.992 65.1104 465.992 56.4038V46.5615C465.992 36.8454 462.709 32.1767 456.523 32.1767C452.61 32.1767 447.56 34.0694 439.733 39.2429V68.265C439.733 74.5741 441.248 76.0883 447.56 76.0883V78.4858H421.68V76.0883C428.75 76.0883 431.275 73.5647 431.275 66.3722V43.0284C431.275 35.0789 426.351 32.1767 421.933 32.1767C418.398 32.1767 413.6 33.817 405.016 39.4953Z" fill="white"/>
<path d="M488.083 53.8801C488.083 36.4669 502.223 27.1293 515.352 27.1293C530.754 27.1293 542.494 38.612 542.494 53.6278C542.494 68.5173 530.754 80 515.731 80C500.076 80 488.083 68.6435 488.083 53.8801ZM497.552 49.5899C497.552 64.858 506.262 76.9716 517.119 76.9716C524.568 76.9716 533.026 69.4006 533.026 56.7823C533.026 42.3975 524.189 30.1577 513.584 30.1577C505.252 30.1577 497.552 38.7382 497.552 49.5899Z" fill="white"/>
<path d="M565.91 40.1262V67.5079C565.91 74.448 567.552 76.0883 574.369 76.0883V78.4858H548.994V76.0883C554.548 76.0883 557.452 73.0599 557.452 68.1388V41.6404C557.452 36.9716 556.947 36.0883 553.665 35.4574L549.372 34.5741V32.5552L563.891 27.2555H565.91V37.0978C574.369 31.7981 581.438 27.1293 587.624 27.1293C596.209 27.1293 601.132 33.4385 601.132 46.0568C601.132 62.8391 600.249 66.1199 600.122 71.041C599.996 74.448 602.016 76.0883 607.192 76.0883H609.969V78.4858H582.827V76.0883C586.488 75.9622 588.634 75.0789 590.023 73.6909C592.421 71.2934 592.674 62.082 592.674 45.2997C592.674 35.2051 587.75 32.0505 582.701 32.0505C578.661 32.0505 572.475 35.5836 565.91 40.1262Z" fill="white"/>
<path d="M626.947 28.5173H645L642.98 34.0694H626.947V63.47C626.947 71.4196 632.628 74.0694 635.279 74.0694C638.057 74.0694 640.582 71.9243 642.98 67.7603L645 69.653C641.97 76.2145 637.047 80 631.239 80C623.791 80 618.489 73.817 618.489 65.3628V34.0694H612.682V32.0505C617.605 29.653 621.897 23.8486 624.801 16.0252H626.947V28.5173Z" fill="white"/>
<path fill-rule="evenodd" clip-rule="evenodd" d="M37.5029 5.33765C45.0041 4.9687 52.5257 5.88046 59.2344 7.96903C65.9432 10.0577 71.5777 13.2429 75.5131 17.1724C78.1683 19.8237 79.9756 22.745 80.8734 25.7803C86.416 27.2763 91.3622 29.5155 95.3363 32.3446C100.245 35.839 103.479 40.0981 104.68 44.6492C105.881 49.2 105.001 53.8659 102.14 58.1295C99.2786 62.3932 94.5468 66.0889 88.4683 68.8065C82.3896 71.5242 75.2011 73.1585 67.7 73.5276C60.1989 73.8966 52.6772 72.9847 45.9684 70.8962C39.2596 68.8076 33.6252 65.6223 29.6897 61.6928C27.0334 59.0404 25.2218 56.119 24.3243 53.0824C18.7834 51.5863 13.837 49.349 9.86401 46.5207C4.95598 43.0263 1.72345 38.7668 0.522625 34.2161C-0.677991 29.6652 0.199066 24.9994 3.06024 20.7357C5.92167 16.4718 10.6557 12.7765 16.7346 10.0587C22.8133 7.3412 30.0018 5.70667 37.5029 5.33765ZM40.7648 30.2318L31.146 48.6335H64.4355L74.0542 30.2318H40.7648Z" fill="white"/>
</svg>
